<?xml version="1.0" encoding="utf-8"?>
<!-- Generator: Adobe Illustrator 16.0.0, SVG Export Plug-In . SVG Version: 6.00 Build 0)  -->
<!DOCTYPE svg PUBLIC "-//W3C//DTD SVG 1.1//EN" "http://www.w3.org/Graphics/SVG/1.1/DTD/svg11.dtd">
<svg version="1.1" id="Layer_1" xmlns="http://www.w3.org/2000/svg" xmlns:xlink="http://www.w3.org/1999/xlink" x="0px" y="0px"
	 width="100px" height="100px" viewBox="0 0 100 100" enable-background="new 0 0 100 100" xml:space="preserve">
<g>
	<path fill="#F4B22C" d="M0.405,49.953c0-16.377,0.001-32.755-0.008-49.131c0-0.337,0.063-0.427,0.417-0.427
		c32.784,0.01,65.569,0.011,98.352-0.002c0.389,0,0.438,0.098,0.438,0.455c-0.01,32.769-0.01,65.537,0,98.306
		c0,0.364-0.061,0.451-0.441,0.451c-32.768-0.012-65.537-0.012-98.306,0.001c-0.408,0-0.461-0.109-0.46-0.479
		C0.406,82.736,0.405,66.345,0.405,49.953z M83.879,84.803c-0.18,0.148-0.148,0.357-0.146,0.55c0.023,2.235,1.01,4.053,2.469,5.66
		c0.061,0.066,0.098,0.206,0.266,0.126c-0.107-1.043-0.141-2.097-0.025-3.147c0.018-0.148-0.045-0.267-0.098-0.392
		c0.154-0.148,0.186-0.346,0.197-0.543c0.07-1.166,0.297-2.309,0.598-3.429c0.369-1.382,0.844-2.735,1.434-4.045
		c0.803-1.78,1.676-3.523,2.762-5.153c0.25,0.031,0.154,0.233,0.182,0.373c0.029,0.216-0.129,0.37-0.191,0.555
		c-0.479,1.393-0.822,2.817-1.141,4.255c-0.238,1.07-0.426,2.149-0.477,3.228c-0.107,2.216-0.09,4.432,0.484,6.616
		c0.316,1.202,0.73,2.36,1.18,3.51c0.031,0.08,0.062,0.184,0.178,0.188c0.125,0.002,0.186-0.078,0.238-0.182
		c0.465-0.93,0.822-1.894,0.828-2.949c0.004-0.582,0.088-1.174-0.178-1.733c0.182-0.031,0.266,0.064,0.359,0.14
		c0.979,0.781,1.705,1.768,2.318,2.847c0.404,0.708,0.697,1.467,0.785,2.27c0.133,1.225,0.037,2.438-0.582,3.547
		c-0.166,0.298-0.012,0.3,0.203,0.299c0.414-0.001,0.828-0.001,1.24-0.002c0.625-0.001,0.627-0.001,0.627-0.604
		c0-8.204-0.002-16.409,0.01-24.613c0-0.363-0.127-0.599-0.383-0.823c-1.182-1.042-2.531-1.828-3.898-2.593
		c-1.887-1.056-3.98-1.622-5.922-2.558c-1.781-0.859-3.461-1.871-5.033-3.062c-0.912-0.692-1.709-1.513-2.492-2.356
		c-0.52-0.562-0.971-1.154-1.383-1.779c-0.871-1.311-1.473-2.746-1.727-4.306c-0.191-1.176-0.217-2.356,0.094-3.521
		c0.135,0.006,0.145,0.095,0.184,0.155c0.436,0.678,0.848,1.372,1.381,1.979c1.365,1.559,3.002,2.779,4.803,3.793
		c1.486,0.837,3.053,1.497,4.664,2.043c1.059,0.358,2.137,0.665,3.221,0.933c0.779,0.192,1.586,0.284,2.379,0.419
		c0.139,0.022,0.297,0.196,0.406,0.037c0.102-0.145-0.072-0.278-0.141-0.409c-0.795-1.489-1.289-3.068-1.287-4.764
		c0.004-1.265-0.264-2.478-0.615-3.669c-0.719-2.436-1.9-4.627-3.613-6.518c-0.818-0.903-1.715-1.719-2.734-2.394
		c-0.539-0.355-1.074-0.717-1.711-1.144c2.391,0.158,4.607,0.585,6.791,1.2c2.199,0.619,4.264,1.548,6.268,2.667
		c-0.539-0.881-0.986-1.784-1.385-2.717c-0.43-1.01-0.764-2.051-0.979-3.121c-0.32-1.585-0.201-3.197-0.205-4.8
		c-0.002-0.467,0.238-0.875,0.223-1.336c-0.002-0.073,0.035-0.194,0.152-0.196c0.09-0.003,0.115,0.09,0.143,0.156
		c0.141,0.316,0.27,0.638,0.41,0.954c0.623,1.396,1.375,2.714,2.305,3.95c0.111-0.154,0.076-0.295,0.076-0.427
		c0-11.618-0.002-23.235,0.012-34.854c0-0.465-0.178-0.508-0.557-0.508C65.617,2.611,34.391,2.611,3.165,2.602
		C2.732,2.601,2.6,2.699,2.6,3.149C2.612,17.033,2.61,30.916,2.611,44.8c0,0.148-0.044,0.311,0.088,0.434
		c-0.12,0.179-0.083,0.383-0.083,0.578C2.614,56.903,2.614,67.994,2.618,79.085c0,0.109-0.067,0.242,0.082,0.344
		c0.292-0.242,0.587-0.48,0.876-0.727c1.146-0.971,2.419-1.768,3.613-2.673c0.193-0.146,0.322-0.293,0.289-0.568
		c-0.232-1.922-0.652-3.792-1.513-5.542c0.013-0.073,0.025-0.146,0.039-0.218c0.855,1.519,1.642,3.069,2.279,4.693
		c0.19,0.485,0.192,0.486,0.56,0.096c2.311-2.462,3.85-5.301,4.259-8.694c0.102-0.021,0.157-0.083,0.157-0.188
		c0-0.637,0-1.271,0-1.908c-0.024-0.002-0.047-0.004-0.071-0.006c-0.011,0.068-0.021,0.135-0.032,0.202
		c-0.018-0.073-0.045-0.146-0.051-0.221c-0.313-4.304-2.367-7.637-5.727-10.233c-0.529-0.408-1.101-0.762-1.653-1.142l0.021-0.021
		c0.076,0.006,0.155-0.001,0.226,0.021c3.261,1.019,6.09,2.715,8.205,5.44c2.88,3.71,3.519,7.988,2.596,12.438
		c-0.922,4.438-2.993,8.358-6.375,11.49c-0.175,0.161-0.225,0.314-0.208,0.557c0.085,1.222,0.129,2.446-0.022,3.664
		c-0.24,1.929-0.509,3.849-0.32,5.803c0.183,1.896,0.617,3.703,1.645,5.337c0.167,0.264,0.349,0.366,0.663,0.363
		c1.729-0.015,3.458-0.031,5.187,0.007c0.618,0.013,1.01-0.136,1.376-0.688c1.45-2.189,2.226-4.578,2.317-7.191
		c0.037-1.055-0.163-2.089-0.447-3.228c1.589,1.28,2.806,2.707,3.646,4.441c1.048,2.163,1.151,4.372,0.233,6.651
		c0.821,0,1.584-0.004,2.348,0.003c0.215,0.003,0.305-0.059,0.271-0.293c-0.065-0.456-0.022-0.914,0.012-1.373
		c0.381-4.979,3.144-8.37,7.246-10.869c0.018,0.024,0.038,0.046,0.06,0.065c-0.798,1.328-1.482,2.709-1.903,4.206
		c-0.755,2.683-0.783,5.34,0.298,7.957c0.088,0.214,0.184,0.312,0.428,0.31c2.128-0.009,4.255-0.008,6.383-0.002
		c0.221,0,0.332-0.063,0.377-0.292c0.131-0.667,0.152-1.336,0.047-2.007c-0.266-1.701-1.113-3.123-2.158-4.447
		c-0.568-0.72-1.226-1.357-1.871-2.012c4.204,1.188,7.762,3.279,10.055,7.238c0.031-0.126,0.05-0.18,0.056-0.235
		c0.223-2.347,0.387-4.697,0.304-7.058c-0.042-1.218-0.122-2.436-0.722-3.537c0.029-0.021,0.043-0.04,0.052-0.038
		c0.058,0.017,0.118,0.03,0.171,0.058c1.146,0.593,2.127,1.378,2.879,2.438c1.271,1.791,1.73,3.857,2.028,5.977
		c0.16,1.137,0.271,2.277,0.293,3.425c0.008,0.393,0.148,0.538,0.549,0.496c0.379-0.038,0.77-0.045,1.146,0
		c0.689,0.086,1.182-0.076,1.354-0.828c0.047-0.202,0.186-0.385,0.287-0.572c1.555-2.827,3.844-4.925,6.564-6.588
		c1.213-0.741,2.469-1.41,3.816-1.885c0.02,0.022,0.039,0.043,0.061,0.062c-0.137,0.122-0.27,0.246-0.408,0.366
		c-1.125,0.978-2.156,2.037-2.918,3.332c-0.449,0.764-0.762,1.571-0.816,2.525c0.434-0.369,0.801-0.714,1.201-1.012
		c2.543-1.882,5.459-2.757,8.555-3.119c0.344-0.04,0.453-0.097,0.295-0.459c-0.43-0.988-0.68-2.024-0.723-3.107
		c-0.121-3.017,1.18-5.296,3.611-6.993l-0.006-0.008c0.059,0.246-0.146,0.386-0.246,0.558c-0.902,1.549-1.262,3.194-0.959,4.978
		c0.248,1.459,1,2.654,1.787,3.875c0.531,0.823,1.133,1.091,2.035,1.084c0.568-0.004,1.158,0.03,1.713,0.228
		c-0.889,0.036-1.77,0.089-2.652,0.225c0.018,0.252,0.158,0.423,0.248,0.611c0.996,2.067,1.445,4.188,0.615,6.426
		c-0.111,0.298,0.041,0.295,0.252,0.295c1.914-0.003,3.826-0.007,5.74,0.005c0.299,0.001,0.389-0.097,0.412-0.389
		c0.084-1.081-0.158-2.093-0.564-3.081c-0.318-0.776-0.771-1.491-1.018-2.305c-0.863-2.856-0.432-5.406,1.75-7.554
		c0.076-0.075,0.168-0.137,0.174-0.259c0.432-0.146,0.688-0.589,1.152-0.696c0.066,0.189-0.02,0.346-0.055,0.521
		C84,84.017,83.686,84.372,83.879,84.803z M66.775,97.385c1.133,0,2.264-0.014,3.396,0.009c0.32,0.007,0.506-0.111,0.662-0.37
		c1.113-1.816,1.236-3.763,0.791-5.793c-0.062-0.292-0.207-0.228-0.393-0.161c-3.287,1.195-6.018,3.151-8.123,5.96
		c-0.066,0.089-0.213,0.186-0.117,0.309c0.047,0.058,0.195,0.045,0.297,0.046C64.451,97.387,65.613,97.386,66.775,97.385z
		 M7.138,84.957c-0.097,0.032-0.134,0.032-0.151,0.051c-1.578,1.771-3.062,3.611-4.2,5.707C2.707,90.861,2.615,91,2.615,91.182
		c0.002,1.972,0.002,3.943-0.003,5.915c-0.001,0.219,0.082,0.295,0.297,0.291c0.581-0.009,1.162-0.013,1.742,0.003
		c0.249,0.006,0.303-0.069,0.282-0.316c-0.133-1.567,0.07-3.105,0.397-4.638c0.341-1.6,0.966-3.122,1.274-4.729
		C6.778,86.802,6.956,85.897,7.138,84.957z"/>
	<path fill-rule="evenodd" clip-rule="evenodd" fill="#030403" d="M64.838,87.52c-1.348,0.475-2.604,1.144-3.816,1.885
		c-2.721,1.663-5.01,3.761-6.564,6.588c-0.102,0.188-0.24,0.37-0.287,0.572c-0.172,0.752-0.664,0.914-1.354,0.828
		c-0.377-0.045-0.768-0.038-1.146,0c-0.4,0.042-0.541-0.104-0.549-0.496c-0.022-1.147-0.133-2.288-0.293-3.425
		c-0.298-2.119-0.757-4.186-2.028-5.977c-0.752-1.06-1.733-1.845-2.879-2.438C45.868,85.03,45.808,85.017,45.75,85
		c-0.008-0.002-0.023,0.017-0.052,0.038c0.601,1.102,0.68,2.319,0.722,3.537c0.083,2.36-0.081,4.711-0.304,7.058
		c-0.005,0.056-0.025,0.109-0.056,0.235c-2.292-3.959-5.851-6.05-10.055-7.238c0.645,0.654,1.303,1.292,1.871,2.012
		c1.044,1.324,1.892,2.746,2.158,4.447c0.105,0.671,0.084,1.34-0.047,2.007c-0.045,0.229-0.156,0.292-0.377,0.292
		c-2.128-0.006-4.255-0.007-6.383,0.002c-0.244,0.002-0.339-0.096-0.428-0.31c-1.081-2.617-1.054-5.274-0.298-7.957
		c0.421-1.497,1.105-2.878,1.903-4.206c0.013-0.03,0.025-0.059,0.038-0.089c-0.032,0.008-0.065,0.016-0.097,0.023
		c-4.102,2.499-6.865,5.89-7.246,10.869c-0.035,0.459-0.077,0.917-0.012,1.373c0.033,0.234-0.056,0.296-0.271,0.293
		c-0.764-0.007-1.527-0.003-2.348-0.003c0.918-2.279,0.815-4.488-0.233-6.651c-0.84-1.734-2.056-3.161-3.646-4.441
		c0.284,1.139,0.484,2.173,0.447,3.228c-0.091,2.613-0.867,5.002-2.317,7.191c-0.366,0.553-0.758,0.701-1.376,0.688
		c-1.729-0.038-3.458-0.021-5.187-0.007c-0.314,0.003-0.497-0.1-0.663-0.363c-1.028-1.634-1.462-3.44-1.645-5.337
		c-0.188-1.954,0.081-3.874,0.32-5.803c0.151-1.218,0.107-2.442,0.022-3.664c-0.017-0.242,0.034-0.396,0.208-0.557
		c3.382-3.132,5.454-7.052,6.375-11.49c0.923-4.449,0.284-8.728-2.596-12.438c-2.114-2.726-4.943-4.422-8.205-5.44
		c-0.071-0.021-0.15-0.015-0.227-0.021c-0.035-0.019-0.069-0.039-0.104-0.054c-0.006-0.003-0.021,0.018-0.032,0.027
		c0.039,0.017,0.077,0.032,0.116,0.048c0.552,0.38,1.124,0.733,1.653,1.142c3.36,2.597,5.413,5.93,5.727,10.233
		c0.006,0.074,0.033,0.147,0.051,0.221c0.001,0.469,0.003,0.938,0.004,1.405c-0.055,0.093-0.071,0.191-0.041,0.296
		c-0.006,0.066-0.012,0.132-0.018,0.198c-0.409,3.394-1.948,6.232-4.259,8.694c-0.367,0.391-0.369,0.39-0.56-0.096
		c-0.637-1.624-1.424-3.175-2.279-4.693c-0.013-0.08-0.071-0.162-0.13-0.086c-0.083,0.108,0.039,0.207,0.092,0.304
		c0.86,1.75,1.28,3.62,1.513,5.542c0.033,0.275-0.096,0.422-0.289,0.568c-1.194,0.905-2.468,1.702-3.613,2.673
		c-0.29,0.246-0.584,0.484-0.876,0.727c-0.149-0.102-0.082-0.234-0.082-0.344C2.614,67.994,2.614,56.903,2.616,45.812
		c0-0.195-0.037-0.399,0.083-0.578c0.138-0.097,0.278-0.189,0.412-0.291c3.479-2.637,6.388-5.833,9.04-9.272
		c4.302-5.579,7.885-11.604,10.99-17.92c0.864-1.756,1.923-3.409,2.724-5.197c0.394-0.879,0.679-1.83,1.206-2.619
		c1.54-2.307,3.722-3.669,6.519-3.821c3.306-0.18,6.138,1.033,8.555,3.245c0.944,0.863,2.027,1.334,3.295,1.426
		c2.353,0.169,4.414,1.061,6.048,2.743c1.982,2.04,3.404,4.473,4.486,7.092c0.383,0.929,0.873,1.777,1.439,2.596
		c0.549,0.797,1.271,1.426,1.961,2.089c-1.342,0.201-2.586,0.669-3.629,1.538c-0.775,0.646-1.662,1.016-2.605,1.292
		c-1.158,0.339-2.341,0.578-3.537,0.751c-0.919,0.132-1.849,0.196-2.713,0.607c-1.478,0.702-1.88,1.83-1.115,3.266
		c0.629,1.18,1.027,2.406,0.941,3.771c-0.049,0.778,0.408,1.332,1.164,1.556c0.804,0.236,1.574,0.116,2.319-0.229
		c0.278-0.129,0.562-0.236,0.861-0.305c1.265-0.293,2.214,0.295,2.519,1.553c0.143,0.594,0.129,1.187-0.029,1.771
		c-0.359,1.327-0.506,2.677-0.414,4.044c0.152,2.306,0.902,4.35,2.652,5.957c0.748,0.686,1.375,1.479,1.779,2.423
		c0.529,1.233,0.201,2.252-0.941,2.952c-0.176,0.107-0.359,0.204-0.605,0.345c0.256,0.025,0.432,0.049,0.607,0.058
		c0.154,0.007,0.307,0,0.459-0.008c2.338-0.117,4.443-0.921,6.393-2.172c0.932-0.597,1.893-1.128,2.941-1.479
		c1.066-0.356,2.152-0.589,3.285-0.324c0.27,0.287,0.604,0.505,0.828,0.844c0.887,1.343,0.721,3.143-0.408,4.361
		c-0.439,0.475-0.965,0.829-1.574,1.13c1.311,1.184,2.264,2.539,2.877,4.141c0.488,1.271,0.473,2.604,0.625,3.921
		c0.297,2.571,0.949,5.033,2.26,7.296c0.701,1.211,1.711,2.142,2.662,3.134c2.008,2.096,4.002,4.205,6,6.308
		c-0.006,0.122-0.098,0.184-0.174,0.259c-2.182,2.147-2.613,4.697-1.75,7.554c0.246,0.813,0.699,1.528,1.018,2.305
		c0.406,0.988,0.648,2,0.564,3.081c-0.023,0.292-0.113,0.39-0.412,0.389c-1.914-0.012-3.826-0.008-5.74-0.005
		c-0.211,0-0.363,0.003-0.252-0.295c0.83-2.238,0.381-4.358-0.615-6.426c-0.09-0.188-0.23-0.359-0.248-0.611
		c0.883-0.136,1.764-0.188,2.652-0.225c-0.555-0.197-1.145-0.231-1.713-0.228c-0.902,0.007-1.504-0.261-2.035-1.084
		c-0.787-1.221-1.539-2.416-1.787-3.875c-0.303-1.783,0.057-3.429,0.959-4.978c0.1-0.172,0.305-0.312,0.246-0.558
		c0.021-0.005,0.041-0.01,0.061-0.017c-0.008-0.002-0.021-0.011-0.025-0.009c-0.012,0.009-0.02,0.022-0.029,0.033
		c-2.432,1.697-3.732,3.977-3.611,6.993c0.043,1.083,0.293,2.119,0.723,3.107c0.158,0.362,0.049,0.419-0.295,0.459
		c-3.096,0.362-6.012,1.237-8.555,3.119c-0.4,0.298-0.768,0.643-1.201,1.012c0.055-0.954,0.367-1.762,0.816-2.525
		c0.762-1.295,1.793-2.354,2.918-3.332c0.139-0.12,0.271-0.244,0.408-0.366c0.033-0.02,0.088-0.033,0.051-0.084
		C64.939,87.484,64.877,87.512,64.838,87.52z M5.555,69.002c-0.016-0.011-0.032-0.021-0.048-0.032
		c0.01,0.018,0.021,0.033,0.031,0.049c-0.001,0.155,0.036,0.292,0.186,0.372c0.017,0.011,0.035,0.021,0.052,0.031
		c-0.011-0.017-0.022-0.034-0.032-0.052C5.744,69.216,5.706,69.079,5.555,69.002z M45.338,66.364
		c-0.734,0.289-1.045,0.885-1.146,1.615c-0.09,0.653,0.249,1.062,0.814,1.332c0.181,0.086,0.326,0.223,0.366,0.441
		c0.033,0.179,0.059,0.389,0.277,0.429c0.221,0.038,0.362-0.129,0.492-0.281c0.323-0.378,0.294-0.658-0.113-0.956
		c-0.147-0.106-0.315-0.184-0.471-0.277c-0.755-0.456-0.904-1.068-0.43-1.813c0.102-0.16,0.201-0.315,0.218-0.506
		c-0.005-0.003-0.009-0.006-0.014-0.01C45.334,66.347,45.336,66.355,45.338,66.364z M59.477,72.071
		c0.066,0.024,0.135,0.046,0.199,0.073c0.525,0.218,0.627,0.166,0.707-0.408c0.084-0.603-0.008-1.191-0.213-1.76
		c-0.23-0.641-0.307-1.231,0.104-1.87c0.529-0.828-0.281-2.051-1.189-1.938c-0.439,0.054-0.895,0.054-1.293,0.251
		c-0.816,0.404-1.676,0.434-2.551,0.384c-0.686-0.041-1.371-0.147-2.057-0.141c-1.145,0.012-1.562,0.601-1.279,1.703
		c0.131,0.512,0.162,1.024,0.018,1.54c-0.266,0.936,0.209,1.502,1.205,1.429c0.305-0.021,0.607-0.074,0.912-0.017
		c0.588,0.111,0.928,0.488,0.898,1.032c-0.021,0.353-0.152,0.675-0.314,0.995c-0.85,1.696-1.123,3.412-0.131,5.163
		c0.125,0.223,0.201,0.479,0.264,0.73c0.229,0.903,0.006,1.294-0.877,1.578c-0.018,0.007-0.021,0.052-0.035,0.089
		c0.309,0.335,0.734,0.43,1.152,0.491c1.877,0.282,3.75,0.098,5.621-0.092c0.363-0.036,0.494-0.296,0.367-0.635
		c-0.094-0.256-0.135-0.49-0.02-0.75c0.887-1.976,0.729-3.915-0.188-5.837C60.432,73.359,59.957,72.734,59.477,72.071z
		 M37.797,33.702c-0.64,0.387-1.039,0.892-1.278,1.515c-0.649,1.688-0.079,2.875,1.632,3.434c0.293,0.097,0.572,0.205,0.712,0.522
		c0.116,0.263,0.227,0.574,0.573,0.587c0.369,0.014,0.49-0.313,0.645-0.572c0.055-0.092,0.102-0.188,0.143-0.287
		c0.193-0.47,0.091-0.771-0.35-1.046c-0.289-0.182-0.614-0.263-0.941-0.341c-1.553-0.376-2.099-1.398-1.539-2.891
		C37.503,34.331,37.644,34.05,37.797,33.702z M36.552,33.298c0.604-0.462,1.296-0.646,2.033-0.689
		c0.289-0.017,0.58-0.016,0.869-0.042c0.243-0.021,0.388-0.16,0.397-0.418c0.008-0.252-0.07-0.445-0.329-0.541
		c-0.151-0.056-0.297-0.047-0.451-0.035C37.912,31.662,37.102,32.274,36.552,33.298z M44.905,65.717
		c0.595-0.033,1.104-0.09,1.608,0.075c0.206,0.068,0.483,0.137,0.554-0.196c0.071-0.343-0.188-0.406-0.441-0.444
		C46,65.057,45.459,65.254,44.905,65.717z M65.123,87.427L65.1,87.413l-0.004,0.019L65.123,87.427z"/>
	<path fill-rule="evenodd" clip-rule="evenodd" fill="#789C4A" d="M82.977,83.804c-1.998-2.103-3.992-4.212-6-6.308
		c-0.951-0.992-1.961-1.923-2.662-3.134c-1.311-2.263-1.963-4.725-2.26-7.296c-0.152-1.317-0.137-2.65-0.625-3.921
		c-0.613-1.602-1.566-2.957-2.877-4.141c0.609-0.301,1.135-0.655,1.574-1.13c1.129-1.219,1.295-3.019,0.408-4.361
		c-0.225-0.339-0.559-0.557-0.828-0.844c0.303-0.082,0.594-0.189,0.84-0.391c0.039-0.027,0.078-0.055,0.117-0.082l-0.008,0.002
		c0.508-0.138,0.912-0.466,1.314-0.771c1.254-0.947,2.377-2.032,3.326-3.294c0.902-1.202,1.643-2.488,2.092-3.932
		c0.332-1.071,0.664-2.145,1.129-3.165c1.043-2.29,2.348-4.415,4.074-6.259c0.883-0.942,1.854-1.779,2.943-2.491
		c0.686-0.448,1.406-0.82,2.119-1.211c0.104-0.011,0.264,0.016,0.303-0.042c0.15-0.217,0.65-0.015,0.572-0.363
		c-0.064-0.282-0.449-0.097-0.688-0.134c-0.42,0.067-0.791-0.173-1.203-0.182c-2.061-0.039-4.104,0.011-6.129,0.507
		c-1.113,0.272-2.182,0.629-3.229,1.078c-1.279,0.551-2.422,1.305-3.508,2.188c-1.18,0.96-2.182,2.057-3.078,3.272
		c-0.275,0.376-0.428,0.841-0.795,1.184c-0.066-0.156-0.018-0.249,0.021-0.351c0.158-0.424,0.371-0.84,0.441-1.278
		c0.166-1.052,0.467-2.071,0.645-3.121c0.252-1.492,0.414-2.992,0.467-4.497c0.066-1.9,0.023-3.801-0.32-5.687
		c-0.088-0.489-0.145-1.002-0.258-1.479c-0.264-1.092-0.562-2.169-0.721-3.287c-0.232-1.65-0.436-3.294-0.256-4.964
		c0.125-1.15,0.277-2.294,0.664-3.393c0.234-0.663,0.549-1.29,0.891-1.905c0.041-0.074,0.082-0.191,0.053-0.253
		c-0.047-0.094-0.158-0.039-0.248-0.016c-0.234,0.063-0.479,0.101-0.705,0.185c-1.529,0.57-2.865,1.444-4.025,2.592
		c-1.471,1.455-2.629,3.129-3.576,4.968c-0.854,1.66-1.59,3.36-2.168,5.137c-0.438,1.339-0.826,2.687-1.145,4.056
		c-0.094,0.004-0.191,0.008-0.285,0.011c-0.689-0.663-1.412-1.292-1.961-2.089c-0.566-0.818-1.057-1.667-1.439-2.596
		c-1.082-2.619-2.504-5.052-4.486-7.092c-1.635-1.683-3.695-2.574-6.048-2.743c-1.269-0.092-2.352-0.562-3.295-1.426
		c-2.417-2.212-5.249-3.425-8.555-3.245c-2.796,0.152-4.979,1.515-6.519,3.821c-0.527,0.789-0.812,1.74-1.206,2.619
		c-0.801,1.788-1.86,3.441-2.724,5.197c-3.105,6.315-6.688,12.341-10.99,17.92c-2.652,3.439-5.562,6.636-9.04,9.272
		c-0.134,0.102-0.274,0.194-0.412,0.291C2.567,45.11,2.611,44.948,2.611,44.8C2.61,30.916,2.612,17.033,2.6,3.149
		c0-0.45,0.132-0.549,0.564-0.548c31.227,0.01,62.453,0.01,93.679,0.003c0.379,0,0.557,0.043,0.557,0.508
		c-0.014,11.618-0.012,23.235-0.012,34.854c0,0.132,0.035,0.272-0.076,0.427c-0.93-1.236-1.682-2.555-2.305-3.95
		c-0.141-0.316-0.27-0.638-0.41-0.954c-0.027-0.066-0.053-0.159-0.143-0.156c-0.117,0.002-0.154,0.123-0.152,0.196
		c0.016,0.461-0.225,0.869-0.223,1.336c0.004,1.603-0.115,3.215,0.205,4.8c0.215,1.07,0.549,2.111,0.979,3.121
		c0.398,0.933,0.846,1.836,1.385,2.717c-2.004-1.119-4.068-2.048-6.268-2.667c-2.184-0.615-4.4-1.042-6.791-1.2
		c0.637,0.427,1.172,0.788,1.711,1.144c1.02,0.675,1.916,1.49,2.734,2.394c1.713,1.891,2.895,4.082,3.613,6.518
		c0.352,1.191,0.619,2.404,0.615,3.669c-0.002,1.695,0.492,3.274,1.287,4.764c0.068,0.131,0.242,0.265,0.141,0.409
		c-0.109,0.159-0.268-0.015-0.406-0.037c-0.793-0.135-1.6-0.227-2.379-0.419c-1.084-0.268-2.162-0.574-3.221-0.933
		c-1.611-0.546-3.178-1.206-4.664-2.043c-1.801-1.014-3.438-2.234-4.803-3.793c-0.533-0.606-0.945-1.301-1.381-1.979
		c-0.039-0.061-0.049-0.149-0.184-0.155c-0.311,1.164-0.285,2.345-0.094,3.521c0.254,1.56,0.855,2.995,1.727,4.306
		c0.412,0.625,0.863,1.218,1.383,1.779c0.783,0.844,1.58,1.664,2.492,2.356c1.572,1.191,3.252,2.203,5.033,3.062
		c1.941,0.936,4.035,1.502,5.922,2.558c1.367,0.765,2.717,1.551,3.898,2.593c0.256,0.225,0.383,0.46,0.383,0.823
		c-0.012,8.204-0.01,16.409-0.01,24.613c0,0.604-0.002,0.604-0.627,0.604c-0.412,0.001-0.826,0.001-1.24,0.002
		c-0.215,0.001-0.369-0.001-0.203-0.299c0.619-1.108,0.715-2.322,0.582-3.547c-0.088-0.803-0.381-1.562-0.785-2.27
		c-0.613-1.079-1.34-2.065-2.318-2.847c-0.094-0.075-0.178-0.171-0.359-0.14c0.266,0.56,0.182,1.151,0.178,1.733
		c-0.006,1.056-0.363,2.02-0.828,2.949c-0.053,0.104-0.113,0.184-0.238,0.182c-0.115-0.004-0.146-0.107-0.178-0.188
		c-0.449-1.149-0.863-2.308-1.18-3.51c-0.574-2.185-0.592-4.4-0.484-6.616c0.051-1.078,0.238-2.157,0.477-3.228
		c0.318-1.438,0.662-2.862,1.141-4.255c0.062-0.185,0.221-0.339,0.191-0.555c0.305-0.25,0.275-0.664,0.471-0.978
		c0.102-0.164,0.316-0.364,0.193-0.669c-0.412,0.374-0.656,0.806-0.846,1.273c-1.086,1.63-1.959,3.373-2.762,5.153
		c-0.59,1.31-1.064,2.663-1.434,4.045c-0.301,1.12-0.527,2.263-0.598,3.429c-0.012,0.197-0.043,0.395-0.197,0.543
		c-0.822-0.933-1.645-1.864-2.465-2.797c-0.193-0.431,0.121-0.786,0.195-1.174c0.035-0.176,0.121-0.332,0.055-0.521
		C83.664,83.215,83.408,83.657,82.977,83.804z"/>
	<path fill-rule="evenodd" clip-rule="evenodd" fill="#050505" d="M66.775,97.385c-1.162,0.001-2.324,0.002-3.486-0.001
		c-0.102-0.001-0.25,0.012-0.297-0.046c-0.096-0.123,0.051-0.22,0.117-0.309c2.105-2.809,4.836-4.765,8.123-5.96
		c0.186-0.066,0.33-0.131,0.393,0.161c0.445,2.03,0.322,3.977-0.791,5.793c-0.156,0.259-0.342,0.377-0.662,0.37
		C69.039,97.371,67.908,97.385,66.775,97.385z"/>
	<path fill-rule="evenodd" clip-rule="evenodd" fill="#060807" d="M7.138,84.957c-0.182,0.94-0.36,1.845-0.534,2.75
		c-0.308,1.607-0.933,3.13-1.274,4.729c-0.327,1.532-0.53,3.07-0.397,4.638c0.021,0.247-0.034,0.322-0.282,0.316
		c-0.58-0.016-1.162-0.012-1.742-0.003c-0.215,0.004-0.298-0.072-0.297-0.291c0.006-1.972,0.005-3.943,0.003-5.915
		c0-0.182,0.092-0.32,0.172-0.467c1.138-2.096,2.623-3.937,4.2-5.707C7.004,84.989,7.041,84.989,7.138,84.957z"/>
	<path fill-rule="evenodd" clip-rule="evenodd" fill="#090907" d="M83.879,84.803c0.82,0.933,1.643,1.864,2.465,2.797
		c0.053,0.125,0.115,0.243,0.098,0.392c-0.115,1.051-0.082,2.104,0.025,3.147c-0.168,0.08-0.205-0.06-0.266-0.126
		c-1.459-1.607-2.445-3.425-2.469-5.66C83.73,85.16,83.699,84.951,83.879,84.803z"/>
	<path fill-rule="evenodd" clip-rule="evenodd" fill="#A0A237" d="M91.334,74.43c0.189-0.468,0.434-0.899,0.846-1.273
		c0.123,0.305-0.092,0.505-0.193,0.669c-0.195,0.313-0.166,0.728-0.471,0.978C91.488,74.663,91.584,74.461,91.334,74.43z"/>
	<path fill-rule="evenodd" clip-rule="evenodd" fill="#7A9C4B" d="M13.161,65.302c-0.001-0.468-0.002-0.937-0.004-1.405
		c0.011-0.067,0.021-0.134,0.032-0.202c0.024,0.002,0.047,0.004,0.071,0.006c0,0.637,0,1.271,0,1.908
		c0,0.104-0.056,0.166-0.157,0.188c0.006-0.066,0.012-0.132,0.018-0.198C13.191,65.508,13.166,65.403,13.161,65.302z"/>
	<path fill-rule="evenodd" clip-rule="evenodd" fill="#0A0A0A" d="M5.966,69.919c-0.053-0.097-0.175-0.195-0.092-0.304
		c0.06-0.076,0.118,0.006,0.13,0.086C5.991,69.773,5.979,69.846,5.966,69.919z"/>
	<path fill-rule="evenodd" clip-rule="evenodd" fill="#FDFEFF" d="M70.547,52.279c-0.246,0.201-0.537,0.309-0.84,0.391
		c-1.133-0.265-2.219-0.032-3.285,0.324c-1.049,0.351-2.01,0.882-2.941,1.479c-1.949,1.251-4.055,2.055-6.393,2.172
		c-0.152,0.008-0.305,0.015-0.459,0.008c-0.176-0.009-0.352-0.032-0.607-0.058c0.246-0.141,0.43-0.237,0.605-0.345
		c1.143-0.7,1.471-1.719,0.941-2.952c-0.404-0.944-1.031-1.737-1.779-2.423c-1.75-1.607-2.5-3.651-2.652-5.957
		c-0.092-1.367,0.055-2.717,0.414-4.044c0.158-0.584,0.172-1.177,0.029-1.771c-0.305-1.258-1.254-1.846-2.519-1.553
		c-0.299,0.068-0.583,0.176-0.861,0.305c-0.746,0.345-1.516,0.465-2.319,0.229c-0.756-0.224-1.213-0.777-1.164-1.556
		c0.086-1.365-0.312-2.592-0.941-3.771c-0.765-1.436-0.362-2.563,1.115-3.266c0.864-0.411,1.793-0.476,2.713-0.607
		c1.195-0.173,2.378-0.412,3.537-0.751c0.943-0.276,1.83-0.646,2.605-1.292c1.043-0.869,2.287-1.337,3.629-1.538
		c0.094-0.003,0.191-0.007,0.285-0.011c0.039,0.025,0.076,0.054,0.117,0.072c1.369,0.605,2.445,1.935,1.639,3.753
		c-0.104,0.234-0.111,0.494-0.074,0.764c0.109,0.814,0.49,1.505,0.936,2.167c0.42,0.625,0.773,1.284,1.016,1.996
		c0.232,0.685,0.383,1.383,0.207,2.113c-0.062,0.257-0.16,0.339-0.443,0.281c-0.463-0.096-0.932-0.234-1.51-0.09
		c0.238,0.092,0.391,0.149,0.541,0.211c1.656,0.67,3.254,1.465,4.457,2.812c2.639,2.954,4.025,6.377,3.672,10.4
		c-0.041,0.463-0.043,0.934,0.203,1.338c0.211,0.348,0.277,0.7,0.236,1.089l0.008-0.002C70.588,52.172,70.57,52.229,70.547,52.279z
		 M57.113,48.324c0.535-0.735,1.271-1.052,2.078-1.224c0.689-0.146,1.387-0.218,2.096-0.176c0.887,0.053,1.436-0.503,1.465-1.44
		c0.031-0.943-0.391-1.417-1.299-1.455c-0.342-0.014-0.686-0.056-0.98-0.216c-1.199-0.654-2.186-0.177-3.104,0.577
		c-0.617,0.508-0.869,1.213-0.838,2C56.559,47.054,56.748,47.682,57.113,48.324z M65.895,41.166
		c-0.268,0.032-0.611-0.026-0.889,0.24c-0.854,0.823-0.984,2.024-0.316,3.002c0.139,0.201,0.281,0.399,0.43,0.593
		c0.406,0.53,0.973,0.503,1.205-0.123c0.23-0.618,0.639-0.874,1.24-0.992c0.463-0.091,0.65-0.407,0.584-0.834
		C67.975,41.936,67.08,41.166,65.895,41.166z M56.787,34.263c0-0.242-0.006-0.484,0.002-0.727c0.041-1.243,0.721-2.399,2.223-2.487
		c0.254-0.016,0.518-0.078,0.752-0.177c0.541-0.228,0.723-0.848,0.41-1.342c-0.24-0.381-0.611-0.533-1.047-0.55
		c-1.244-0.048-2.383,0.808-2.686,2.054C56.172,32.136,56.352,33.208,56.787,34.263z M52.748,32.124
		c-0.324-0.047-0.518-0.089-0.715-0.102c-1.343-0.085-2.547,0.188-3.422,1.323c-0.288,0.373-0.233,0.744-0.041,1.111
		c0.193,0.37,0.542,0.475,0.935,0.42c0.519-0.072,0.986-0.293,1.293-0.708C51.341,33.434,51.902,32.724,52.748,32.124z"/>
	<path fill-rule="evenodd" clip-rule="evenodd" fill="#FAFAFA" d="M59.477,72.071c0.48,0.663,0.955,1.288,1.301,2.012
		c0.916,1.922,1.074,3.861,0.188,5.837c-0.115,0.26-0.074,0.494,0.02,0.75c0.127,0.339-0.004,0.599-0.367,0.635
		c-1.871,0.189-3.744,0.374-5.621,0.092c-0.418-0.062-0.844-0.156-1.152-0.491c0.014-0.037,0.018-0.082,0.035-0.089
		c0.883-0.284,1.105-0.675,0.877-1.578c-0.062-0.251-0.139-0.508-0.264-0.73c-0.992-1.751-0.719-3.467,0.131-5.163
		c0.162-0.32,0.293-0.643,0.314-0.995c0.029-0.544-0.311-0.921-0.898-1.032c-0.305-0.058-0.607-0.005-0.912,0.017
		c-0.996,0.073-1.471-0.493-1.205-1.429c0.145-0.516,0.113-1.028-0.018-1.54c-0.283-1.103,0.135-1.691,1.279-1.703
		c0.686-0.007,1.371,0.1,2.057,0.141c0.875,0.05,1.734,0.021,2.551-0.384c0.398-0.197,0.854-0.197,1.293-0.251
		c0.908-0.112,1.719,1.11,1.189,1.938c-0.41,0.639-0.334,1.229-0.104,1.87c0.205,0.568,0.297,1.157,0.213,1.76
		c-0.08,0.574-0.182,0.626-0.707,0.408C59.611,72.117,59.543,72.096,59.477,72.071z M55.047,76.79
		c0.004,0.494,0.059,0.598,0.211,0.519c0.664-0.346,1.328-0.211,2-0.038c0.451,0.116,0.709-0.047,0.854-0.515
		c0.129-0.413,0.014-0.621-0.43-0.806c-0.154-0.063-0.32-0.124-0.441-0.231c-0.477-0.419-0.98-0.346-1.49-0.101
		C55.215,75.874,55.055,76.35,55.047,76.79z M56.064,68.338c-0.676-0.311-1.279-0.514-1.936-0.493
		c-0.543,0.017-0.977,0.24-1.219,0.744c-0.23,0.477-0.041,0.964,0.422,1.059c0.465,0.096,0.926,0.053,1.287-0.295
		C55.027,68.961,55.455,68.603,56.064,68.338z M56.859,69.176c0.582-0.416,1.23-0.519,1.918-0.513
		c0.486,0.006,0.783-0.269,0.799-0.647c0.016-0.391-0.291-0.697-0.764-0.764C57.68,67.095,56.77,67.975,56.859,69.176z
		 M58.617,76.214c0.002,0.02,0.008,0.095,0.02,0.171c0.082,0.635,0.184,0.688,0.721,0.358c0.184-0.112,0.365-0.118,0.568-0.055
		c0.279,0.086,0.451-0.044,0.49-0.32c0.061-0.412-0.002-0.801-0.348-1.078c-0.25-0.201-0.527-0.296-0.848-0.128
		C58.818,75.376,58.605,75.695,58.617,76.214z"/>
	<path fill-rule="evenodd" clip-rule="evenodd" fill="#F6F6F6" d="M37.797,33.702c-0.153,0.348-0.294,0.629-0.403,0.921
		c-0.56,1.492-0.014,2.515,1.539,2.891c0.328,0.078,0.652,0.159,0.941,0.341c0.441,0.275,0.542,0.576,0.35,1.046
		c-0.041,0.099-0.088,0.195-0.143,0.287c-0.155,0.259-0.276,0.586-0.645,0.572c-0.346-0.013-0.457-0.324-0.573-0.587
		c-0.14-0.317-0.418-0.426-0.712-0.522c-1.71-0.559-2.281-1.746-1.632-3.434C36.758,34.594,37.158,34.089,37.797,33.702z"/>
	<path fill-rule="evenodd" clip-rule="evenodd" fill="#F6F6F6" d="M45.346,66.346c-0.018,0.192-0.117,0.348-0.218,0.508
		c-0.474,0.745-0.325,1.357,0.43,1.813c0.156,0.094,0.324,0.171,0.471,0.277c0.407,0.298,0.436,0.578,0.113,0.956
		c-0.13,0.152-0.271,0.319-0.492,0.281c-0.218-0.04-0.244-0.25-0.277-0.429c-0.04-0.219-0.185-0.355-0.366-0.441
		c-0.566-0.27-0.904-0.679-0.814-1.332c0.101-0.73,0.412-1.326,1.146-1.615L45.346,66.346z"/>
	<path fill-rule="evenodd" clip-rule="evenodd" fill="#F0EFEF" d="M36.552,33.298c0.549-1.023,1.359-1.636,2.52-1.726
		c0.154-0.012,0.3-0.021,0.451,0.035c0.258,0.096,0.337,0.289,0.329,0.541c-0.009,0.258-0.154,0.396-0.397,0.418
		c-0.289,0.026-0.58,0.025-0.869,0.042C37.849,32.652,37.156,32.836,36.552,33.298z"/>
	<path fill-rule="evenodd" clip-rule="evenodd" fill="#F0EFEF" d="M44.905,65.717c0.554-0.463,1.095-0.66,1.72-0.565
		c0.253,0.038,0.513,0.102,0.441,0.444c-0.07,0.333-0.348,0.265-0.554,0.196C46.01,65.627,45.5,65.684,44.905,65.717z"/>
	<path fill-rule="evenodd" clip-rule="evenodd" fill="#0A0A0A" d="M5.555,69.002c0.151,0.077,0.189,0.214,0.188,0.368l-0.02,0.021
		c-0.15-0.08-0.187-0.217-0.186-0.372L5.555,69.002z"/>
	<path fill-rule="evenodd" clip-rule="evenodd" fill="#789C4B" d="M13.161,65.302c0.005,0.102,0.03,0.206-0.041,0.296
		C13.09,65.493,13.105,65.395,13.161,65.302z"/>
	<path fill-rule="evenodd" clip-rule="evenodd" fill="#789C4B" d="M5.727,52.301c-0.039-0.016-0.078-0.031-0.116-0.048
		c0.011-0.01,0.026-0.03,0.032-0.027c0.036,0.015,0.07,0.035,0.104,0.054C5.748,52.279,5.727,52.301,5.727,52.301z"/>
	<path fill-rule="evenodd" clip-rule="evenodd" fill="#0A0A0A" d="M5.743,69.37c0.01,0.018,0.021,0.035,0.032,0.052
		c-0.018-0.011-0.035-0.021-0.052-0.031L5.743,69.37z"/>
	<path fill-rule="evenodd" clip-rule="evenodd" fill="#0A0A0A" d="M5.538,69.019c-0.01-0.016-0.021-0.031-0.031-0.049
		c0.017,0.011,0.032,0.021,0.048,0.032L5.538,69.019z"/>
	<path fill-rule="evenodd" clip-rule="evenodd" fill="#F6F6F6" d="M45.338,66.364c-0.002-0.009-0.004-0.018-0.007-0.026
		c0.004,0.004,0.009,0.007,0.014,0.009C45.346,66.346,45.338,66.364,45.338,66.364z"/>
	<path fill-rule="evenodd" clip-rule="evenodd" fill="#789C4B" d="M73.695,79.115c0.01-0.011,0.018-0.024,0.029-0.033
		c0.004-0.002,0.018,0.007,0.025,0.009c-0.02,0.007-0.039,0.012-0.061,0.017L73.695,79.115z"/>
	<path fill-rule="evenodd" clip-rule="evenodd" fill="#789C4B" d="M34.345,84.852c0.032-0.008,0.065-0.016,0.097-0.023
		c-0.012,0.03-0.025,0.059-0.038,0.089C34.383,84.897,34.363,84.876,34.345,84.852z"/>
	<polygon fill-rule="evenodd" clip-rule="evenodd" fill="#789C4B" points="65.123,87.427 65.096,87.432 65.1,87.413 	"/>
	<path fill-rule="evenodd" clip-rule="evenodd" fill="#789C4B" d="M64.838,87.52c0.039-0.008,0.102-0.035,0.111-0.021
		c0.037,0.051-0.018,0.064-0.051,0.084C64.877,87.562,64.857,87.542,64.838,87.52z"/>
	<path fill-rule="evenodd" clip-rule="evenodd" fill="#F4B22C" d="M70.656,52.199c0.041-0.389-0.025-0.741-0.236-1.089
		c-0.246-0.404-0.244-0.875-0.203-1.338c0.354-4.023-1.033-7.446-3.672-10.4c-1.203-1.348-2.801-2.143-4.457-2.812
		c-0.15-0.062-0.303-0.119-0.541-0.211c0.578-0.145,1.047-0.006,1.51,0.09c0.283,0.058,0.381-0.024,0.443-0.281
		c0.176-0.73,0.025-1.429-0.207-2.113c-0.242-0.712-0.596-1.371-1.016-1.996c-0.445-0.662-0.826-1.353-0.936-2.167
		c-0.037-0.27-0.029-0.529,0.074-0.764c0.807-1.818-0.27-3.147-1.639-3.753c-0.041-0.019-0.078-0.047-0.117-0.072
		c0.318-1.369,0.707-2.717,1.145-4.056c0.578-1.776,1.314-3.477,2.168-5.137c0.947-1.839,2.105-3.513,3.576-4.968
		c1.16-1.147,2.496-2.021,4.025-2.592c0.227-0.084,0.471-0.121,0.705-0.185c0.09-0.023,0.201-0.078,0.248,0.016
		c0.029,0.062-0.012,0.179-0.053,0.253c-0.342,0.615-0.656,1.242-0.891,1.905c-0.387,1.099-0.539,2.242-0.664,3.393
		c-0.18,1.67,0.023,3.313,0.256,4.964c0.158,1.118,0.457,2.195,0.721,3.287c0.113,0.477,0.17,0.989,0.258,1.479
		c0.344,1.886,0.387,3.786,0.32,5.687c-0.053,1.505-0.215,3.005-0.467,4.497c-0.178,1.05-0.479,2.069-0.645,3.121
		c-0.07,0.438-0.283,0.854-0.441,1.278c-0.039,0.102-0.088,0.194-0.021,0.351c0.367-0.343,0.52-0.808,0.795-1.184
		c0.896-1.216,1.898-2.312,3.078-3.272c1.086-0.883,2.229-1.637,3.508-2.188c1.047-0.449,2.115-0.806,3.229-1.078
		c2.025-0.496,4.068-0.546,6.129-0.507c0.412,0.009,0.783,0.249,1.203,0.182c0.17,0.156,0.314,0.307-0.062,0.372
		c-0.092,0.016-0.113,0.089-0.125,0.167c-0.713,0.391-1.434,0.763-2.119,1.211c-1.09,0.712-2.061,1.549-2.943,2.491
		c-1.727,1.844-3.031,3.969-4.074,6.259c-0.465,1.021-0.797,2.094-1.129,3.165c-0.449,1.443-1.189,2.729-2.092,3.932
		c-0.949,1.262-2.072,2.347-3.326,3.294C71.568,51.733,71.164,52.062,70.656,52.199z"/>
	<path fill-rule="evenodd" clip-rule="evenodd" fill="#A0A237" d="M87.654,31.077c0.012-0.078,0.033-0.151,0.125-0.167
		c0.377-0.065,0.232-0.216,0.062-0.372c0.238,0.037,0.623-0.148,0.688,0.134c0.078,0.349-0.422,0.146-0.572,0.363
		C87.918,31.093,87.758,31.066,87.654,31.077z"/>
	<path fill-rule="evenodd" clip-rule="evenodd" fill="#7A9C4B" d="M70.547,52.279c0.023-0.051,0.041-0.107,0.117-0.082
		C70.625,52.225,70.586,52.252,70.547,52.279z"/>
	<path fill-rule="evenodd" clip-rule="evenodd" fill="#050505" d="M57.113,48.324c-0.365-0.643-0.555-1.271-0.582-1.934
		c-0.031-0.787,0.221-1.492,0.838-2c0.918-0.754,1.904-1.231,3.104-0.577c0.295,0.16,0.639,0.202,0.98,0.216
		c0.908,0.038,1.33,0.512,1.299,1.455c-0.029,0.938-0.578,1.493-1.465,1.44c-0.709-0.042-1.406,0.029-2.096,0.176
		C58.385,47.272,57.648,47.589,57.113,48.324z"/>
	<path fill-rule="evenodd" clip-rule="evenodd" fill="#070707" d="M65.895,41.166c1.186,0,2.08,0.77,2.254,1.886
		c0.066,0.427-0.121,0.743-0.584,0.834c-0.602,0.118-1.01,0.374-1.24,0.992c-0.232,0.626-0.799,0.653-1.205,0.123
		c-0.148-0.193-0.291-0.392-0.43-0.593c-0.668-0.978-0.537-2.179,0.316-3.002C65.283,41.14,65.627,41.198,65.895,41.166z"/>
	<path fill-rule="evenodd" clip-rule="evenodd" fill="#0A0A0A" d="M56.787,34.263c-0.436-1.055-0.615-2.127-0.346-3.229
		c0.303-1.246,1.441-2.102,2.686-2.054c0.436,0.017,0.807,0.169,1.047,0.55c0.312,0.494,0.131,1.114-0.41,1.342
		c-0.234,0.099-0.498,0.161-0.752,0.177c-1.502,0.088-2.182,1.244-2.223,2.487C56.781,33.778,56.787,34.021,56.787,34.263z"/>
	<path fill-rule="evenodd" clip-rule="evenodd" fill="#080808" d="M52.748,32.124c-0.846,0.6-1.407,1.31-1.949,2.045
		c-0.307,0.415-0.774,0.636-1.293,0.708c-0.394,0.055-0.742-0.05-0.935-0.42c-0.193-0.367-0.247-0.738,0.041-1.111
		c0.875-1.136,2.08-1.408,3.422-1.323C52.23,32.035,52.424,32.077,52.748,32.124z"/>
	<path fill-rule="evenodd" clip-rule="evenodd" fill="#080808" d="M55.047,76.79c0.008-0.44,0.168-0.916,0.703-1.172
		c0.51-0.245,1.014-0.318,1.49,0.101c0.121,0.107,0.287,0.168,0.441,0.231c0.443,0.185,0.559,0.393,0.43,0.806
		c-0.145,0.468-0.402,0.631-0.854,0.515c-0.672-0.173-1.336-0.308-2,0.038C55.105,77.388,55.051,77.284,55.047,76.79z"/>
	<path fill-rule="evenodd" clip-rule="evenodd" fill="#0A0A0A" d="M56.064,68.338c-0.609,0.265-1.037,0.623-1.445,1.015
		c-0.361,0.348-0.822,0.391-1.287,0.295c-0.463-0.095-0.652-0.582-0.422-1.059c0.242-0.504,0.676-0.728,1.219-0.744
		C54.785,67.824,55.389,68.027,56.064,68.338z"/>
	<path fill-rule="evenodd" clip-rule="evenodd" fill="#0A0A0A" d="M56.859,69.176c-0.09-1.201,0.82-2.081,1.953-1.924
		c0.473,0.066,0.779,0.373,0.764,0.764c-0.016,0.379-0.312,0.653-0.799,0.647C58.09,68.657,57.441,68.76,56.859,69.176z"/>
	<path fill-rule="evenodd" clip-rule="evenodd" fill="#0A0A0A" d="M58.617,76.214c-0.012-0.519,0.201-0.838,0.604-1.052
		c0.32-0.168,0.598-0.073,0.848,0.128c0.346,0.277,0.408,0.666,0.348,1.078c-0.039,0.276-0.211,0.406-0.49,0.32
		c-0.203-0.063-0.385-0.058-0.568,0.055c-0.537,0.329-0.639,0.276-0.721-0.358C58.625,76.309,58.619,76.233,58.617,76.214z"/>
</g>
</svg>
